HIERARCHY
ROOT Root
{
  OFFSET 0.0 0.0 0.0
  CHANNELS 6 Xposition Yposition Zposition Zrotation Yrotation Xrotation
  JOINT Hips
  {
    OFFSET 0.0 100.0 0.0
    CHANNELS 6 Xposition Yposition Zposition Zrotation Yrotation Xrotation
    JOINT Spine1
    {
      OFFSET -0.013727 5.003763 -0.053727
      CHANNELS 3 Zrotation Yrotation Xrotation
      JOINT Spine2
      {
        OFFSET -0.0 7.125301 -0.029825
        CHANNELS 3 Zrotation Yrotation Xrotation
        JOINT Chest
        {
          OFFSET -1e-06 7.550063 -0.815971
          CHANNELS 3 Zrotation Yrotation Xrotation
          JOINT Neck1
          {
            OFFSET -0.181677 26.311295 -0.553348
            CHANNELS 3 Zrotation Yrotation Xrotation
            JOINT Neck2
            {
              OFFSET -3e-06 7.709397 2.302585
              CHANNELS 3 Zrotation Yrotation Xrotation
              JOINT Head
              {
                OFFSET -5e-06 6.128916 1.953709
                CHANNELS 3 Zrotation Yrotation Xrotation
                JOINT HeadEnd
                {
                  OFFSET 0.003598 16.065403 -1.835379
                  CHANNELS 3 Zrotation Yrotation Xrotation
                }
                JOINT Jaw
                {
                  OFFSET 0.002637 0.475592 3.094941
                  CHANNELS 3 Zrotation Yrotation Xrotation
                }
                JOINT LeftEye
                {
                  OFFSET 3.206381 5.380205 7.586883
                  CHANNELS 3 Zrotation Yrotation Xrotation
                }
                JOINT RightEye
                {
                  OFFSET -3.22244 5.361869 7.558234
                  CHANNELS 3 Zrotation Yrotation Xrotation
                }
              }
            }
          }
          JOINT LeftShoulder
          {
            OFFSET 1.621652 23.237164 5.113413
            CHANNELS 3 Zrotation Yrotation Xrotation
            JOINT LeftArm
            {
              OFFSET 14.919846 2e-06 -5.502326
              CHANNELS 3 Zrotation Yrotation Xrotation
              JOINT LeftForeArm
              {
                OFFSET 28.739307 0.0 -0.002588
                CHANNELS 3 Zrotation Yrotation Xrotation
                JOINT LeftHand
                {
                  OFFSET 27.093981 -1e-06 0.002609
                  CHANNELS 3 Zrotation Yrotation Xrotation
                  JOINT LeftHandThumb1
                  {
                    OFFSET 2.276482 -1.392045 3.191413
                    CHANNELS 3 Zrotation Yrotation Xrotation
                    JOINT LeftHandThumb2
                    {
                      OFFSET 4.012836 -1.828127 1.641654
                      CHANNELS 3 Zrotation Yrotation Xrotation
                      JOINT LeftHandThumb3
                      {
                        OFFSET 2.798515 0.0 -3e-06
                        CHANNELS 3 Zrotation Yrotation Xrotation
                        JOINT LeftHandThumbEnd
                        {
                          OFFSET 3.180793 -4e-06 4e-06
                          CHANNELS 3 Zrotation Yrotation Xrotation
                        }
                      }
                    }
                  }
                  JOINT LeftHandIndex1
                  {
                    OFFSET 3.247555 -0.531998 2.296169
                    CHANNELS 3 Zrotation Yrotation Xrotation
                    JOINT LeftHandIndex2
                    {
                      OFFSET 6.364578 0.01206 0.1786
                      CHANNELS 3 Zrotation Yrotation Xrotation
                      JOINT LeftHandIndex3
                      {
                        OFFSET 3.662364 0.0 0.0
                        CHANNELS 3 Zrotation Yrotation Xrotation
                        JOINT LeftHandIndex4
                        {
                          OFFSET 2.329242 4e-06 4e-06
                          CHANNELS 3 Zrotation Yrotation Xrotation
                          JOINT LeftHandIndexEnd
                          {
                            OFFSET 2.759615 -0.180537 -0.113024
                            CHANNELS 3 Zrotation Yrotation Xrotation
                          }
                        }
                      }
                    }
                  }
                  JOINT LeftHandMiddle1
                  {
                    OFFSET 3.163495 0.240981 1.000332
                    CHANNELS 3 Zrotation Yrotation Xrotation
                    JOINT LeftHandMiddle2
                    {
                      OFFSET 6.19078 -0.259278 -1.002548
                      CHANNELS 3 Zrotation Yrotation Xrotation
                      JOINT LeftHandMiddle3
                      {
                        OFFSET 4.35652 -4e-06 -1e-06
                        CHANNELS 3 Zrotation Yrotation Xrotation
                        JOINT LeftHandMiddle4
                        {
                          OFFSET 2.996877 -8e-06 0.0
                          CHANNELS 3 Zrotation Yrotation Xrotation
                          JOINT LeftHandMiddleEnd
                          {
                            OFFSET 2.304287 -0.294569 -0.031741
                            CHANNELS 3 Zrotation Yrotation Xrotation
                          }
                        }
                      }
                    }
                  }
                  JOINT LeftHandRing1
                  {
                    OFFSET 2.882643 -0.053652 -0.322543
                    CHANNELS 3 Zrotation Yrotation Xrotation
                    JOINT LeftHandRing2
                    {
                      OFFSET 5.854541 -0.486202 -1.373841
                      CHANNELS 3 Zrotation Yrotation Xrotation
                      JOINT LeftHandRing3
                      {
                        OFFSET 4.350578 0.0 3e-06
                        CHANNELS 3 Zrotation Yrotation Xrotation
                        JOINT LeftHandRing4
                        {
                          OFFSET 2.651321 7e-06 2e-06
                          CHANNELS 3 Zrotation Yrotation Xrotation
                          JOINT LeftHandRingEnd
                          {
                            OFFSET 1.936105 0.077687 -7.1e-05
                            CHANNELS 3 Zrotation Yrotation Xrotation
                          }
                        }
                      }
                    }
                  }
                  JOINT LeftHandPinky1
                  {
                    OFFSET 2.8655 -0.310005 -1.600378
                    CHANNELS 3 Zrotation Yrotation Xrotation
                    JOINT LeftHandPinky2
                    {
                      OFFSET 5.087849 -1.331141 -1.77123
                      CHANNELS 3 Zrotation Yrotation Xrotation
                      JOINT LeftHandPinky3
                      {
                        OFFSET 3.070974 4e-06 0.0
                        CHANNELS 3 Zrotation Yrotation Xrotation
                        JOINT LeftHandPinky4
                        {
                          OFFSET 1.549672 0.0 1e-06
                          CHANNELS 3 Zrotation Yrotation Xrotation
                          JOINT LeftHandPinkyEnd
                          {
                            OFFSET 1.944893 -0.157802 0.057219
                            CHANNELS 3 Zrotation Yrotation Xrotation
                          }
                        }
                      }
                    }
                  }
                }
              }
            }
          }
          JOINT RightShoulder
          {
            OFFSET -1.380118 23.180309 5.214158
            CHANNELS 3 Zrotation Yrotation Xrotation
            JOINT RightArm
            {
              OFFSET -15.037196 1.2e-05 -5.545604
              CHANNELS 3 Zrotation Yrotation Xrotation
              JOINT RightForeArm
              {
                OFFSET -28.736639 2e-06 -0.002597
                CHANNELS 3 Zrotation Yrotation Xrotation
                JOINT RightHand
                {
                  OFFSET -27.133619 -0.0 0.002613
                  CHANNELS 3 Zrotation Yrotation Xrotation
                  JOINT RightHandThumb1
                  {
                    OFFSET -2.274032 -1.383988 3.163127
                    CHANNELS 3 Zrotation Yrotation Xrotation
                    JOINT RightHandThumb2
                    {
                      OFFSET -4.011429 -1.827466 1.640914
                      CHANNELS 3 Zrotation Yrotation Xrotation
                      JOINT RightHandThumb3
                      {
                        OFFSET -2.794935 -4e-06 -3e-06
                        CHANNELS 3 Zrotation Yrotation Xrotation
                        JOINT RightHandThumbEnd
                        {
                          OFFSET -3.183852 4e-06 1e-06
                          CHANNELS 3 Zrotation Yrotation Xrotation
                        }
                      }
                    }
                  }
                  JOINT RightHandIndex1
                  {
                    OFFSET -3.253266 -0.520057 2.282866
                    CHANNELS 3 Zrotation Yrotation Xrotation
                    JOINT RightHandIndex2
                    {
                      OFFSET -6.341917 0.012471 0.178266
                      CHANNELS 3 Zrotation Yrotation Xrotation
                      JOINT RightHandIndex3
                      {
                        OFFSET -3.654871 -8e-06 -0.0
                        CHANNELS 3 Zrotation Yrotation Xrotation
                        JOINT RightHandIndex4
                        {
                          OFFSET -2.327586 0.0 1e-06
                          CHANNELS 3 Zrotation Yrotation Xrotation
                          JOINT RightHandIndexEnd
                          {
                            OFFSET -2.76179 -0.180656 -0.113078
                            CHANNELS 3 Zrotation Yrotation Xrotation
                          }
                        }
                      }
                    }
                  }
                  JOINT RightHandMiddle1
                  {
                    OFFSET -3.168106 0.246593 1.00103
                    CHANNELS 3 Zrotation Yrotation Xrotation
                    JOINT RightHandMiddle2
                    {
                      OFFSET -6.180828 -0.258836 -1.000895
                      CHANNELS 3 Zrotation Yrotation Xrotation
                      JOINT RightHandMiddle3
                      {
                        OFFSET -4.348901 0.0 -0.0
                        CHANNELS 3 Zrotation Yrotation Xrotation
                        JOINT RightHandMiddle4
                        {
                          OFFSET -3.00024 -4e-06 -2e-06
                          CHANNELS 3 Zrotation Yrotation Xrotation
                          JOINT RightHandMiddleEnd
                          {
                            OFFSET -2.30252 -0.29437 -0.031706
                            CHANNELS 3 Zrotation Yrotation Xrotation
                          }
                        }
                      }
                    }
                  }
                  JOINT RightHandRing1
                  {
                    OFFSET -2.88569 -0.067952 -0.308858
                    CHANNELS 3 Zrotation Yrotation Xrotation
                    JOINT RightHandRing2
                    {
                      OFFSET -5.854198 -0.48613 -1.373731
                      CHANNELS 3 Zrotation Yrotation Xrotation
                      JOINT RightHandRing3
                      {
                        OFFSET -4.33881 -4e-06 -0.0
                        CHANNELS 3 Zrotation Yrotation Xrotation
                        JOINT RightHandRing4
                        {
                          OFFSET -2.654903 -4e-06 4e-06
                          CHANNELS 3 Zrotation Yrotation Xrotation
                          JOINT RightHandRingEnd
                          {
                            OFFSET -1.933568 0.077527 -5.2e-05
                            CHANNELS 3 Zrotation Yrotation Xrotation
                          }
                        }
                      }
                    }
                  }
                  JOINT RightHandPinky1
                  {
                    OFFSET -2.866425 -0.342796 -1.584145
                    CHANNELS 3 Zrotation Yrotation Xrotation
                    JOINT RightHandPinky2
                    {
                      OFFSET -5.091371 -1.332055 -1.772385
                      CHANNELS 3 Zrotation Yrotation Xrotation
                      JOINT RightHandPinky3
                      {
                        OFFSET -3.062664 -4e-06 1e-06
                        CHANNELS 3 Zrotation Yrotation Xrotation
                        JOINT RightHandPinky4
                        {
                          OFFSET -1.546529 4e-06 -2e-06
                          CHANNELS 3 Zrotation Yrotation Xrotation
                          JOINT RightHandPinkyEnd
                          {
                            OFFSET -1.945119 -0.157718 0.057211
                            CHANNELS 3 Zrotation Yrotation Xrotation
                          }
                        }
                      }
                    }
                  }
                }
              }
            }
          }
        }
      }
    }
    JOINT LeftLeg
    {
      OFFSET 10.043214 -8.434526 2.595655
      CHANNELS 3 Zrotation Yrotation Xrotation
      JOINT LeftShin
      {
        OFFSET -1e-06 -43.221752 -0.802913
        CHANNELS 3 Zrotation Yrotation Xrotation
        JOINT LeftFoot
        {
          OFFSET 1e-06 -42.155094 -3.481523
          CHANNELS 3 Zrotation Yrotation Xrotation
          JOINT LeftToeBase
          {
            OFFSET 0.0 -5.059472 13.231529
            CHANNELS 3 Zrotation Yrotation Xrotation
            JOINT LeftToeEnd
            {
              OFFSET -0.009607 -1.647619 6.513017
              CHANNELS 3 Zrotation Yrotation Xrotation
            }
          }
        }
      }
    }
    JOINT RightLeg
    {
      OFFSET -10.047278 -8.29526 2.620317
      CHANNELS 3 Zrotation Yrotation Xrotation
      JOINT RightShin
      {
        OFFSET 1e-06 -43.362206 -0.805556
        CHANNELS 3 Zrotation Yrotation Xrotation
        JOINT RightFoot
        {
          OFFSET 2e-06 -42.117393 -3.478398
          CHANNELS 3 Zrotation Yrotation Xrotation
          JOINT RightToeBase
          {
            OFFSET -0.0 -5.079609 13.284196
            CHANNELS 3 Zrotation Yrotation Xrotation
            JOINT RightToeEnd
            {
              OFFSET 0.009532 -1.634378 6.460591
              CHANNELS 3 Zrotation Yrotation Xrotation
            }
          }
        }
      }
    }
  }
}
MOTION
Frames: 4
Frame Time: 0.03333333333333333
0.0 0.0 0.0 0.0 -0.0 0.0 2.760653 93.960419 -1.318028 4.593946 0.475448 -5.820951 -1.212898 -0.263248 4.102331 -0.528351 1.86806 -3.504838 -1.81627 0.522469 14.278852 0.520424 2.054609 -3.389686 -1.621311 -3.169573 -3.551782 0.824328 -4.23577 -14.073559 7.7e-05 -2.2e-05 6e-06 0.050563 0.093319 0.178152 0.654094 -3.689994 -10.783978 -0.569472 3.870047 -10.760483 -10.85303 -4.862181 15.891687 -51.707558 -4.01485 18.166248 -174.082504 -80.488075 173.824783 30.451836 -7.373874 -12.168509 -5.882102 9.861279 0.70259 -10.936858 -0.360574 7.156195 0.0 8.774814 0.0 -15.645156 18.772346 6.882297 -1.844031 2.498503 -2.507276 -10.163589 4.678941 4.621103 -20.975994 -0.0 1e-06 -21.226252 2.451699 -3.593994 0.0 -6e-06 -0.0 -1.36268 2.240796 -0.746323 -21.334888 0.58491 3.008318 -13.821193 -1e-06 1e-06 -23.887127 -0.249074 -0.839485 -60.134911 2.568234 -1.347459 -0.294025 1.679686 0.833255 -14.218191 0.093216 1.300578 -34.211994 -0.28756 0.967166 -20.033173 0.964536 1.212838 -0.0 0.0 0.0 -3.440386 0.788233 0.501655 -15.928168 -3.167305 2.999702 -6.338816 -0.0 0.0 -18.123415 3.64818 -4.905661 -4e-06 0.0 -2e-06 7.861481 11.422105 16.843988 66.5681 7.363288 8.092993 178.389267 80.904968 177.384247 -21.238201 20.026543 -9.033213 2.24354 -5.255033 -3.180155 14.282875 -0.826595 6.952495 0.0 -12.690593 -1e-06 15.686517 -18.622353 3.22319 1.665665 -1.95592 -2.878296 4.727794 -4.170584 4.993918 11.020509 0.0 -0.0 12.109029 -3.735715 -2.866777 -0.0 0.0 -0.0 1.291984 -1.928548 -1.498088 14.800112 0.567466 3.865604 14.242552 -1.341739 -6.660646 19.631929 0.14392 -0.648243 50.848923 -1.065838 -6.238378 0.353029 -1.511149 -0.03194 20.222765 3.684304 2.316628 18.787243 0.0 -0.0 10.751607 -0.47987 1.397902 0.0 0.0 0.0 3.273804 0.305947 -0.58011 21.486788 11.830361 2.266131 8.162914 -0.0 -0.0 18.399046 -3.798986 -4.940566 3e-06 0.0 -1e-06 -13.171616 -8.023637 -14.490798 0.448458 0.454431 36.571262 6.035858 10.274023 -15.097619 1.552404 -2.001738 -2.099471 0.0 -0.0 2e-06 -12.790092 -8.678304 -6.249832 0.042645 -0.738141 95.980316 -4.252773 -6.871062 14.612315 -1.586477 1.026036 -5.46485 0.0 -0.0 -1e-06 
0.0 0.0 0.0 0.0 -0.0 0.0 2.580948 91.93013 3.543054 6.160529 1.017061 -7.471432 -2.08651 -0.267413 5.451756 -0.684437 0.866054 -3.05582 -3.241194 -0.569412 15.402113 1.750136 1.686463 -3.595083 -1.652963 -2.504261 -3.57578 1.359853 -3.571302 -17.828653 7.7e-05 -2.2e-05 6e-06 0.042927 0.047014 0.183177 0.701974 -3.718634 -10.753272 -0.63023 3.819111 -10.729342 -11.142161 -6.635016 15.01579 -51.11702 -16.358473 13.851415 -175.452118 -75.757019 174.731628 31.033112 -8.160093 -10.643485 -5.882102 9.861279 0.70259 -10.936858 -0.360574 7.156195 0.0 8.774814 0.0 -16.434649 18.54458 6.256364 -1.844031 2.498503 -2.507276 -10.163589 4.678941 4.621103 -20.975994 -0.0 1e-06 -21.226252 2.451699 -3.593994 0.0 -6e-06 -0.0 -1.36268 2.240796 -0.746323 -21.334888 0.58491 3.008318 -13.821193 -1e-06 1e-06 -23.887127 -0.249074 -0.839485 -60.634068 2.536704 -1.516986 -0.294025 1.679686 0.833255 -14.218191 0.093216 1.300578 -34.211994 -0.28756 0.967166 -20.033173 0.964536 1.212838 -0.0 0.0 0.0 -3.440386 0.788233 0.501655 -15.928168 -3.167305 2.999702 -6.338816 -0.0 0.0 -18.123415 3.64818 -4.905661 -4e-06 0.0 -2e-06 5.625309 10.261915 16.891199 67.698364 1.188985 9.593771 173.891891 85.778076 173.679962 -23.885668 18.495968 -10.698787 2.24354 -5.255033 -3.180155 14.282875 -0.826595 6.952495 0.0 -12.690593 -1e-06 16.399984 -18.289919 2.736614 1.665665 -1.95592 -2.878296 4.727794 -4.170584 4.993918 11.020509 0.0 -0.0 12.109029 -3.735715 -2.866777 -0.0 0.0 -0.0 1.291984 -1.928548 -1.498088 14.800112 0.567466 3.865604 14.242552 -1.341739 -6.660646 19.631929 0.14392 -0.648243 50.908112 -0.719826 -6.301334 0.353029 -1.511149 -0.03194 20.222765 3.684304 2.316628 18.787243 0.0 -0.0 10.751607 -0.47987 1.397902 0.0 0.0 0.0 3.273804 0.305947 -0.58011 21.486788 11.830361 2.266131 8.162914 -0.0 -0.0 18.399046 -3.798986 -4.940566 3e-06 0.0 -1e-06 -15.555833 -7.009629 -11.773039 0.528119 0.563594 41.949936 5.305165 10.720017 -21.349943 1.559667 -2.11683 -0.385167 0.0 -0.0 2e-06 -15.98912 -7.801141 -17.581686 -0.165753 -0.938997 106.851318 -4.07302 -4.577586 11.663219 -1.444835 0.8957 -5.477292 0.0 -0.0 -1e-06 
0.0 0.0 0.0 0.0 -0.0 0.0 2.236838 91.419464 11.892132 5.123258 2.326823 -7.947394 -1.743472 -0.546197 5.933814 -0.535002 -0.40351 -2.730117 -3.818647 -2.612494 15.849765 2.671959 1.626574 -4.212562 -1.630835 -1.561715 -3.448583 1.514797 -2.836853 -18.631588 7.7e-05 -2.2e-05 6e-06 0.033617 0.002545 0.144311 0.706773 -3.727366 -10.6262 -0.650269 3.744982 -10.630663 -10.416193 -9.45295 13.626604 -50.71146 -28.301157 6.412279 -174.049469 -70.564713 173.323746 30.261642 -10.641665 -10.543139 -5.882102 9.861279 0.70259 -10.936858 -0.360574 7.156195 0.0 8.774814 0.0 -16.694735 18.714254 6.094749 -1.844031 2.498503 -2.507276 -10.163589 4.678941 4.621103 -20.975994 -0.0 1e-06 -21.226252 2.451699 -3.593994 0.0 -6e-06 -0.0 -1.36268 2.240796 -0.746323 -21.334888 0.58491 3.008318 -13.821193 -1e-06 1e-06 -23.887127 -0.249074 -0.839485 -61.655258 2.57676 -1.885531 -0.294025 1.679686 0.833255 -14.218191 0.093216 1.300578 -34.211994 -0.28756 0.967166 -20.033173 0.964536 1.212838 -0.0 0.0 0.0 -3.440386 0.788233 0.501655 -15.928168 -3.167305 2.999702 -6.338816 -0.0 0.0 -18.123415 3.64818 -4.905661 -4e-06 0.0 -2e-06 3.710307 8.889836 17.245548 68.447762 -7.45998 10.960967 172.772034 85.364426 172.295013 -24.626049 17.138493 -12.449956 2.24354 -5.255033 -3.180155 14.282875 -0.826595 6.952495 0.0 -12.690593 -1e-06 16.332724 -17.750525 2.245159 1.665665 -1.95592 -2.878296 4.727794 -4.170584 4.993918 11.020509 0.0 -0.0 12.109029 -3.735715 -2.866777 -0.0 0.0 -0.0 1.291984 -1.928548 -1.498088 14.800112 0.567466 3.865604 14.242552 -1.341739 -6.660646 19.631929 0.14392 -0.648243 50.322926 -0.46357 -6.417167 0.353029 -1.511149 -0.03194 20.222765 3.684304 2.316628 18.787243 0.0 -0.0 10.751607 -0.47987 1.397902 0.0 0.0 0.0 3.273804 0.305947 -0.58011 21.486788 11.830361 2.266131 8.162914 -0.0 -0.0 18.399046 -3.798986 -4.940566 3e-06 0.0 -1e-06 -14.413153 -5.314024 -4.983062 0.375515 0.613684 41.867359 4.571945 9.528956 -26.429668 1.621656 -2.111984 -0.35899 0.0 -0.0 2e-06 -14.633496 -8.240289 -30.50379 -0.111301 -0.710099 109.191917 -3.035378 -5.697948 10.802555 -1.445346 0.845418 -5.322659 0.0 -0.0 -1e-06 
0.0 0.0 0.0 0.0 -0.0 0.0 1.544999 91.94191 21.588425 2.476902 3.831483 -6.852456 -1.118896 -1.122981 5.550608 -0.257694 -2.231714 -2.768191 -2.938251 -4.89708 14.703674 3.25164 1.579836 -4.170544 -1.247988 -0.364906 -3.484072 0.925441 -1.407716 -17.404896 7.7e-05 -2.2e-05 6e-06 0.002213 -0.098241 0.093176 0.663573 -3.802006 -10.547726 -0.666815 3.618891 -10.54214 -8.325742 -12.923918 11.873672 -50.211174 -36.491158 -0.257999 -174.624924 -64.780937 174.531662 30.936014 -11.872931 -12.903119 -5.882102 9.861279 0.70259 -10.936858 -0.360574 7.156195 0.0 8.774814 0.0 -15.729071 18.724283 6.830476 -1.844031 2.498503 -2.507276 -10.163589 4.678941 4.621103 -20.975994 -0.0 1e-06 -21.226252 2.451699 -3.593994 0.0 -6e-06 -0.0 -1.36268 2.240796 -0.746323 -21.334888 0.58491 3.008318 -13.821193 -1e-06 1e-06 -23.887127 -0.249074 -0.839485 -61.953136 2.571185 -1.84033 -0.294025 1.679686 0.833255 -14.218191 0.093216 1.300578 -34.211994 -0.28756 0.967166 -20.033173 0.964536 1.212838 -0.0 0.0 0.0 -3.440386 0.788233 0.501655 -15.928168 -3.167305 2.999702 -6.338816 -0.0 0.0 -18.123415 3.64818 -4.905661 -4e-06 0.0 -2e-06 2.637307 7.332227 16.677176 67.113129 -17.896315 12.09043 174.176743 80.606522 173.141846 -23.859037 16.177511 -14.229597 2.24354 -5.255033 -3.180155 14.282875 -0.826595 6.952495 0.0 -12.690593 -1e-06 16.296993 -17.270903 1.967511 1.665665 -1.95592 -2.878296 4.727794 -4.170584 4.993918 11.020509 0.0 -0.0 12.109029 -3.735715 -2.866777 -0.0 0.0 -0.0 1.291984 -1.928548 -1.498088 14.800112 0.567466 3.865604 14.242552 -1.341739 -6.660646 19.631929 0.14392 -0.648243 50.115723 -0.334238 -6.090147 0.353029 -1.511149 -0.03194 20.222765 3.684304 2.316628 18.787243 0.0 -0.0 10.751607 -0.47987 1.397902 0.0 0.0 0.0 3.273804 0.305947 -0.58011 21.486788 11.830361 2.266131 8.162914 -0.0 -0.0 18.399046 -3.798986 -4.940566 3e-06 0.0 -1e-06 -10.896814 -5.203312 3.572699 0.260414 0.493535 36.139275 3.675923 8.065791 -28.334702 1.709364 -2.028203 -2.497992 0.0 -0.0 2e-06 -9.927966 -9.875482 -41.889523 -0.013475 -0.526623 102.603317 -3.318777 -9.592594 9.219512 -1.49176 0.859369 -4.835823 0.0 -0.0 -1e-06 
